<svg width="136" height="16" viewBox="0 0 136 16" fill="none" xmlns="http://www.w3.org/2000/svg">
<ellipse cx="38.8538" cy="8" rx="2.77173" ry="3" fill="white"/>
<ellipse cx="53.6389" cy="8" rx="2.77173" ry="3" fill="#0288D1"/>
<ellipse cx="68.4241" cy="8" rx="2.77173" ry="3" fill="white"/>
<ellipse cx="83.2014" cy="8" rx="2.77173" ry="3" fill="white"/>
<path d="M135.643 8.20711C136.033 7.81658 136.033 7.18342 135.643 6.79289L129.279 0.428932C128.888 0.0384078 128.255 0.0384078 127.864 0.428932C127.474 0.819457 127.474 1.45262 127.864 1.84315L133.521 7.5L127.864 13.1569C127.474 13.5474 127.474 14.1805 127.864 14.5711C128.255 14.9616 128.888 14.9616 129.279 14.5711L135.643 8.20711ZM112.762 8.5H134.936V6.5H112.762V8.5Z" fill="white"/>
<ellipse cx="97.9866" cy="8" rx="2.77173" ry="3" fill="white"/>
<path d="M1.20108 7.79289C0.810553 8.18342 0.810553 8.81658 1.20108 9.20711L7.56504 15.5711C7.95556 15.9616 8.58873 15.9616 8.97925 15.5711C9.36978 15.1805 9.36978 14.5474 8.97925 14.1569L3.3224 8.5L8.97925 2.84315C9.36978 2.45262 9.36978 1.81946 8.97925 1.42893C8.58873 1.03841 7.95556 1.03841 7.56504 1.42893L1.20108 7.79289ZM24.082 7.5L1.90818 7.5V9.5L24.082 9.5V7.5Z" fill="white"/>
</svg>
