<svg width="24" height="24" viewBox="0 0 24 24" fill="none" xmlns="http://www.w3.org/2000/svg">
<path fill-rule="evenodd" clip-rule="evenodd" d="M16.4483 2.74386V3.77876C19.457 4.07065 20.9961 5.73355 20.9961 8.72324V16.9935C20.9961 20.3193 19.1004 22.0088 15.37 22.0088H8.62218C4.89175 22.0088 2.99609 20.3193 2.99609 16.9935V8.72324C2.99609 6.73307 3.67435 5.30898 5.06566 4.47753C5.28498 4.32783 5.56872 4.31738 5.79811 4.45055C6.0275 4.58373 6.16296 4.83755 6.14779 5.10577C6.13261 5.37399 5.96942 5.61034 5.72653 5.71586C4.80479 6.26427 4.37001 7.21955 4.37001 8.72324V8.9886H17.057C17.4364 8.9886 17.7439 9.30145 17.7439 9.68738C17.7439 10.0733 17.4364 10.3861 17.057 10.3861H4.37001V16.9935C4.37001 19.5321 5.60479 20.5847 8.62218 20.6024H15.37C18.3439 20.6024 19.6135 19.5233 19.6135 16.9847V8.7144C19.6135 6.50309 18.6483 5.43282 16.4483 5.1763V5.84854C16.3975 6.20685 16.0891 6.46843 15.7335 6.45478C15.3779 6.44112 15.0897 6.15665 15.0657 5.79547V2.68195C15.0724 2.49497 15.1526 2.31856 15.2882 2.1922C15.4239 2.06585 15.6037 2.00011 15.7874 2.00971C16.1661 2.0334 16.4584 2.35802 16.4483 2.74386ZM8.70487 6.30158C8.57415 6.43288 8.39718 6.50546 8.21349 6.50309C7.83749 6.49344 7.53904 6.17802 7.54392 5.79547V2.74386C7.58345 2.38588 7.88108 2.11524 8.23522 2.11524C8.58937 2.11524 8.887 2.38588 8.92653 2.74386V3.708H12.857C13.2364 3.708 13.5439 4.02085 13.5439 4.40677C13.5439 4.79269 13.2364 5.10554 12.857 5.10554H8.90914V5.80432C8.90915 5.99119 8.83558 6.17028 8.70487 6.30158ZM16.1874 12.624C15.7072 12.624 15.3178 13.02 15.3178 13.5085C15.3178 13.997 15.7072 14.393 16.1874 14.393C16.6676 14.393 17.057 13.997 17.057 13.5085C17.057 13.2724 16.9642 13.0461 16.7992 12.8799C16.6342 12.7138 16.4108 12.6216 16.1787 12.624H16.1874ZM11.1439 13.5085C11.1439 13.02 11.5332 12.624 12.0135 12.624C12.4937 12.624 12.883 13.02 12.883 13.5085C12.883 13.997 12.4937 14.393 12.0135 14.393C11.5332 14.393 11.1439 13.997 11.1439 13.5085ZM7.84827 12.624C7.36802 12.624 6.9787 13.02 6.9787 13.5085C6.9787 13.997 7.36802 14.393 7.84827 14.393C8.32852 14.393 8.71783 13.997 8.71783 13.5085C8.71784 13.2724 8.62504 13.0461 8.46008 12.8799C8.29512 12.7138 8.0717 12.6216 7.83957 12.624H7.84827ZM15.3178 17.0908C15.3178 16.6023 15.7072 16.2063 16.1874 16.2063H16.1787C16.4108 16.204 16.6342 16.2961 16.7992 16.4622C16.9642 16.6284 17.057 16.8547 17.057 17.0908C17.057 17.5793 16.6676 17.9754 16.1874 17.9754C15.7072 17.9754 15.3178 17.5793 15.3178 17.0908ZM12.0135 16.2063C11.5332 16.2063 11.1439 16.6023 11.1439 17.0908C11.1439 17.5793 11.5332 17.9754 12.0135 17.9754C12.4937 17.9754 12.883 17.5793 12.883 17.0908C12.883 16.6023 12.4937 16.2063 12.0135 16.2063ZM6.9787 17.0908C6.9787 16.6023 7.36802 16.2063 7.84827 16.2063H7.83957C8.0717 16.204 8.29512 16.2961 8.46008 16.4622C8.62504 16.6284 8.71784 16.8547 8.71783 17.0908C8.71783 17.5793 8.32852 17.9754 7.84827 17.9754C7.36802 17.9754 6.9787 17.5793 6.9787 17.0908Z" fill="#616164"/>
</svg>
