<svg width="24" height="24" viewBox="0 0 24 24" fill="none" xmlns="http://www.w3.org/2000/svg">
<rect width="23.9998" height="24" transform="translate(-0.00390625 0.00878906)" fill="white"/>
<path fill-rule="evenodd" clip-rule="evenodd" d="M6.66206 8.00887C6.66206 12.4533 11.9953 16.4533 11.9953 16.4533C11.9953 16.4533 17.3286 12.4533 17.3286 8.00887C17.3286 5.06335 14.9408 2.67554 11.9953 2.67554C9.04986 2.67554 6.66206 5.06335 6.66206 8.00887ZM11.9953 18.0089C11.9961 18.0089 11.984 18.0004 11.9603 17.9838C11.6923 17.7953 9.9333 16.5588 8.29438 14.6755H6.01035C5.56314 14.6755 5.14571 14.8997 4.89875 15.2726L1.36625 20.6059C1.22165 20.8243 1.14453 21.0803 1.14453 21.3422C1.14453 22.0786 1.74148 22.6755 2.47785 22.6755H21.4978C21.762 22.6755 22.0202 22.597 22.2397 22.4501C22.8515 22.0404 23.0154 21.2122 22.6057 20.6003L19.0345 15.267C18.787 14.8974 18.3715 14.6755 17.9267 14.6755H15.6963C14.0574 16.5588 12.2984 17.7953 12.0304 17.9838C12.0067 18.0004 11.9946 18.0089 11.9953 18.0089ZM6.66206 21.3422V20.0089H17.3286V21.3422H6.66206ZM11.9953 10.0089C13.0999 10.0089 13.9953 9.11344 13.9953 8.00887C13.9953 6.9043 13.0999 6.00887 11.9953 6.00887C10.8908 6.00887 9.99537 6.9043 9.99537 8.00887C9.99537 9.11344 10.8908 10.0089 11.9953 10.0089Z" fill="#616164"/>
</svg>
