<svg width="23" height="24" viewBox="0 0 23 24" fill="none" xmlns="http://www.w3.org/2000/svg">
<path d="M10.9063 18.0516C11.9543 18.0516 12.8833 17.318 13.2059 16.2375C13.2276 16.1649 13.1973 16.0875 13.1323 16.0547C13.0673 16.0242 12.9916 16.05 12.9569 16.1157C12.9526 16.1227 12.5845 16.7672 11.1445 16.9782C10.9387 17.0086 10.7287 17.025 10.5208 17.025C9.5139 17.025 9.06349 16.6125 9.05916 16.6102C9.00719 16.561 8.9314 16.561 8.87726 16.6078C8.82529 16.6547 8.8123 16.7391 8.84911 16.8024C9.29086 17.5711 10.0769 18.0492 10.9063 18.0516Z" fill="#616164"/>
<path d="M16.9415 9.47387C15.9986 6.71163 13.558 4.73764 10.6861 4.73764C7.82665 4.73764 5.39218 6.69377 4.44315 9.43815C4.39364 9.37785 4.34206 9.3198 4.28636 9.26844C4.82483 5.92338 7.48418 3.37997 10.6902 3.37997C13.8819 3.37997 16.533 5.89881 17.09 9.21931C17.0322 9.2997 16.9827 9.38455 16.9415 9.47387ZM18.2742 8.5695C18.2619 8.5695 18.2515 8.57174 18.2392 8.57174C17.4366 4.8091 14.3667 2.0022 10.6882 2.0022C6.90857 2.0022 3.76852 4.96541 3.07325 8.88436C2.38211 9.02281 1.87871 9.67708 1.88284 10.4385V13.5536C1.88284 14.4267 2.53065 15.1346 3.32908 15.1346C3.77883 15.1346 4.17701 14.9046 4.44109 14.5518C5.08065 16.3761 6.37216 17.8499 8.02677 18.6315C8.0474 18.5868 8.07216 18.5444 8.09898 18.5042C8.1258 18.4685 8.15469 18.4372 8.17944 18.4372C8.2042 18.4372 8.22896 18.4461 8.24959 18.4618C7.86791 18.1536 6.49182 16.5771 6.19267 14.3731C6.06269 13.404 6.7332 12.4505 7.51512 12.2942C8.76949 12.0418 10.0177 11.7538 11.272 11.5059C12.0705 11.3496 12.6151 10.874 12.9473 10.0857C13.0257 9.90038 13.1392 9.52747 13.1907 8.99154C13.2031 8.91115 13.2671 8.85086 13.3434 8.85086C13.3929 8.85086 13.4383 8.87766 13.4672 8.92009L13.5023 8.89776C13.9974 9.67485 14.9774 11.3965 15.1177 13.2097C15.2786 15.2842 15.1899 16.7044 13.723 18.1581L13.7168 18.1648C13.6962 18.1893 13.6838 18.2206 13.6838 18.2541C13.6838 18.2965 13.7044 18.3367 13.7375 18.3591C13.7498 18.3635 13.7622 18.3724 13.7746 18.3769C13.7849 18.3792 13.7932 18.3814 13.8035 18.3836C13.8138 18.3836 13.822 18.3814 13.8303 18.3769C13.8509 18.3658 13.8716 18.3524 13.8922 18.339C15.39 17.4435 16.5165 15.963 17.0384 14.1989C17.2564 14.5465 17.5909 14.7884 17.971 14.8733C17.352 17.9303 14.8309 19.8462 11.7094 20.1343C11.5114 19.6118 11.041 19.2724 10.5211 19.2746C9.81549 19.2746 9.24194 19.8797 9.24194 20.6256C9.24194 21.3714 9.81549 21.9765 10.5211 21.9765C11.0699 21.9788 11.5588 21.5992 11.7321 21.0364C15.3446 20.7194 18.2412 18.3948 18.8457 14.784C19.3966 14.5384 19.7555 13.9578 19.7555 13.3124V10.1661C19.7597 9.28407 19.0953 8.5695 18.2742 8.5695Z" fill="#616164"/>
</svg>
